<svg xmlns="http://www.w3.org/2000/svg" xmlns:xlink="http://www.w3.org/1999/xlink" width="208" zoomAndPan="magnify" viewBox="0 0 156 155.999997" height="208" preserveAspectRatio="xMidYMid meet" version="1.0"><defs><g/><clipPath id="387e51be06"><path d="M 12.601562 89.683594 L 143.101562 89.683594 L 143.101562 105 L 12.601562 105 Z M 12.601562 89.683594 " clip-rule="nonzero"/></clipPath></defs><path fill="#2563eb" d="M 116.328125 65.128906 C 114.019531 62.671875 115.609375 62 112.960938 60.605469 C 109 58.449219 108.992188 60.769531 109.164062 55.863281 C 109.125 54.226562 109.574219 49.203125 107.816406 48.953125 C 105.382812 48.53125 102.699219 54.378906 101.785156 55.957031 C 101.171875 57.007812 100.464844 57.375 99.347656 57.851562 C 96.820312 58.925781 95.964844 59.554688 94.480469 61.507812 C 92.558594 63.851562 90.972656 67.4375 90.496094 70.679688 C 90.066406 73.25 90.753906 73.152344 89.988281 74.472656 C 83.992188 83.117188 74.210938 86.390625 71.722656 88.089844 C 69.808594 89.542969 64.765625 91.355469 63.25 93.429688 C 64.417969 93.410156 70.921875 93.402344 72.058594 93.417969 C 84.453125 93.589844 101.304688 94.046875 111.289062 96.203125 C 111.917969 94.554688 112.996094 91.101562 112.816406 87.214844 C 112.84375 84.621094 112.449219 82.140625 112.339844 79.539062 C 112.175781 77.757812 112.328125 77.492188 113.472656 76.605469 C 115.351562 74.953125 118.515625 74.601562 120.144531 70.328125 C 121.644531 65.921875 117.851562 67 116.328125 65.128906 " fill-opacity="1" fill-rule="nonzero"/><path fill="#2563eb" d="M 123.921875 20.832031 C 120.207031 19.71875 117.605469 18.976562 114.632812 18.601562 C 112.035156 16.746094 111.292969 11.546875 104.976562 10.433594 C 103.121094 10.0625 105.71875 0.03125 104.976562 0.03125 C 103.121094 0.03125 94.207031 10.433594 93.835938 10.804688 C 89.667969 16.011719 88.527344 22.6875 84.371094 28.351562 C 81.574219 32.160156 79.632812 36.089844 72.867188 43.210938 C 66.75 49.878906 60.882812 55.882812 55.4375 61.71875 L 70.050781 46.554688 L 87.644531 46.554688 C 87.949219 46.554688 88.195312 46.804688 88.195312 47.105469 L 88.195312 63.027344 C 88.195312 63.332031 87.949219 63.578125 87.644531 63.578125 L 70.667969 63.578125 L 70.667969 80.558594 C 70.667969 80.859375 70.421875 81.105469 70.117188 81.105469 L 54.195312 81.105469 C 53.890625 81.105469 53.644531 80.859375 53.644531 80.558594 L 53.644531 63.648438 C 43.679688 74.464844 35.25 84.886719 29.476562 98.121094 C 40.378906 96.230469 53.894531 93.957031 66.203125 93.492188 C 67.996094 90.769531 70.0625 88.410156 72.449219 86.59375 C 75.003906 84.851562 82.304688 82.179688 88.464844 73.300781 C 89.25 71.941406 88.542969 72.042969 88.984375 69.402344 C 89.472656 66.070312 91.796875 61.695312 93.769531 59.289062 C 95.292969 57.28125 96.175781 56.632812 98.769531 55.53125 C 99.722656 55.125 100.382812 54.789062 100.9375 54.078125 C 100.910156 53.136719 100.890625 52.097656 100.890625 50.917969 C 100.890625 46.089844 101.261719 44.976562 103.121094 41.632812 C 105.71875 37.175781 107.949219 33.089844 113.519531 31.605469 C 117.234375 30.863281 120.207031 32.347656 123.550781 30.492188 C 126.523438 29.375 128.75 20.460938 123.921875 20.832031 " fill-opacity="1" fill-rule="nonzero"/><path fill="#2563eb" d="M 70.136719 46.554688 L 70.753906 46.554688 L 70.753906 29.578125 C 70.753906 29.273438 70.503906 29.027344 70.203125 29.027344 L 54.28125 29.027344 C 53.976562 29.027344 53.734375 29.273438 53.734375 29.578125 L 53.734375 46.554688 L 36.753906 46.554688 C 36.449219 46.554688 36.203125 46.804688 36.203125 47.105469 L 36.203125 63.027344 C 36.203125 63.332031 36.449219 63.578125 36.753906 63.578125 L 53.734375 63.578125 L 70.136719 46.554688 " fill-opacity="1" fill-rule="nonzero"/><g clip-path="url(#387e51be06)"><path fill="#2563eb" d="M 143.277344 105.1875 C 133.40625 99.765625 122.566406 96.132812 111.535156 93.644531 C 100.566406 91.210938 89.320312 89.980469 78.070312 89.90625 L 78.070312 89.902344 C 78.027344 89.902344 77.984375 89.902344 77.941406 89.902344 C 77.898438 89.902344 77.855469 89.902344 77.8125 89.902344 L 77.8125 89.90625 C 66.558594 89.980469 55.316406 91.210938 44.347656 93.644531 C 33.3125 96.132812 22.472656 99.765625 12.601562 105.1875 C 23.292969 101.71875 34.125 99.210938 45.082031 97.542969 C 55.972656 95.875 66.957031 95.019531 77.941406 94.949219 C 88.925781 95.019531 99.910156 95.875 110.800781 97.542969 C 121.753906 99.210938 132.589844 101.71875 143.277344 105.1875 " fill-opacity="1" fill-rule="nonzero"/></g><g fill="#1f355f" fill-opacity="1"><g transform="translate(13.608783, 136.551436)"><g><path d="M 11.734375 -12.078125 C 11.222656 -12.023438 10.566406 -11.910156 9.765625 -11.734375 L 5 -10.671875 L 7.015625 -1.546875 L 2.703125 -0.59375 L -1.953125 -21.625 C -1.660156 -21.675781 -1.332031 -21.738281 -0.96875 -21.8125 L 0.21875 -22.046875 C 1.019531 -22.191406 1.851562 -22.363281 2.71875 -22.5625 C 5.289062 -23.125 7.738281 -23.703125 10.0625 -24.296875 C 10.164062 -23.359375 10.390625 -22.113281 10.734375 -20.5625 C 10.765625 -20.40625 10.796875 -20.285156 10.828125 -20.203125 L 10.8125 -20.15625 C 10.21875 -20.175781 9.421875 -20.078125 8.421875 -19.859375 L 3.21875 -18.703125 L 4.171875 -14.390625 L 8.765625 -15.40625 C 9.921875 -15.664062 10.609375 -15.851562 10.828125 -15.96875 Z M 11.734375 -12.078125 "/></g></g></g><g fill="#1f355f" fill-opacity="1"><g transform="translate(29.773924, 132.876738)"><g><path d="M 11.75 -23.4375 C 12.425781 -23.476562 12.976562 -23.53125 13.40625 -23.59375 L 14.734375 -23.78125 C 15.179688 -23.851562 15.644531 -23.960938 16.125 -24.109375 L 18.03125 -10.921875 C 18.40625 -8.296875 17.914062 -6.082031 16.5625 -4.28125 C 15.28125 -2.5625 13.507812 -1.535156 11.25 -1.203125 C 8.769531 -0.847656 6.671875 -1.207031 4.953125 -2.28125 C 3.023438 -3.476562 1.863281 -5.4375 1.46875 -8.15625 L -0.484375 -21.671875 C 0.410156 -21.742188 1.25 -21.835938 2.03125 -21.953125 C 2.8125 -22.066406 3.453125 -22.203125 3.953125 -22.359375 L 5.9375 -8.59375 C 6.132812 -7.25 6.695312 -6.265625 7.625 -5.640625 C 8.476562 -5.078125 9.484375 -4.878906 10.640625 -5.046875 C 12.335938 -5.285156 13.335938 -6.316406 13.640625 -8.140625 C 13.753906 -8.796875 13.75 -9.582031 13.625 -10.5 Z M 11.75 -23.4375 "/></g></g></g><g fill="#1f355f" fill-opacity="1"><g transform="translate(51.661322, 129.776869)"><g><path d="M 9.15625 -8.9375 C 8.832031 -8.894531 8.488281 -8.859375 8.125 -8.828125 C 7.757812 -8.804688 7.21875 -8.800781 6.5 -8.8125 L 7.03125 -0.453125 L 2.765625 -0.171875 L 1.390625 -21.671875 C 2.878906 -21.960938 4.71875 -22.175781 6.90625 -22.3125 C 9.882812 -22.5 12.140625 -22.09375 13.671875 -21.09375 C 15.203125 -20.09375 16.039062 -18.441406 16.1875 -16.140625 C 16.300781 -14.359375 15.726562 -12.796875 14.46875 -11.453125 C 14.0625 -11.015625 13.582031 -10.628906 13.03125 -10.296875 L 16.765625 -3.59375 C 17.492188 -2.207031 18.039062 -1.390625 18.40625 -1.140625 L 18.328125 -1.0625 C 17.273438 -1.164062 15.640625 -1.054688 13.421875 -0.734375 Z M 7.453125 -18.546875 C 6.898438 -18.515625 6.378906 -18.457031 5.890625 -18.375 L 6.28125 -12.21875 C 6.800781 -12.175781 7.414062 -12.175781 8.125 -12.21875 C 8.832031 -12.269531 9.421875 -12.367188 9.890625 -12.515625 C 10.367188 -12.671875 10.773438 -12.890625 11.109375 -13.171875 C 11.835938 -13.796875 12.164062 -14.675781 12.09375 -15.8125 C 12.019531 -16.945312 11.570312 -17.722656 10.75 -18.140625 C 9.988281 -18.503906 8.890625 -18.640625 7.453125 -18.546875 Z M 7.453125 -18.546875 "/></g></g></g><g fill="#1f355f" fill-opacity="1"><g transform="translate(70.990279, 128.590264)"><g><path d="M 13.5625 -3.8125 C 14.226562 -3.800781 14.691406 -3.859375 14.953125 -3.984375 L 15.015625 -3.96875 L 14.84375 0.078125 L 2.765625 0.015625 L 2.875 -21.53125 C 3.164062 -21.507812 3.488281 -21.492188 3.84375 -21.484375 L 4.96875 -21.4375 C 5.726562 -21.414062 6.546875 -21.40625 7.421875 -21.40625 C 9.878906 -21.382812 12.3125 -21.410156 14.71875 -21.484375 C 14.601562 -20.535156 14.539062 -19.269531 14.53125 -17.6875 C 14.53125 -17.519531 14.539062 -17.394531 14.5625 -17.3125 L 14.53125 -17.265625 C 13.96875 -17.429688 13.171875 -17.515625 12.140625 -17.515625 L 7.078125 -17.546875 L 7.046875 -13.4375 L 10.859375 -13.40625 C 12.035156 -13.40625 12.742188 -13.4375 12.984375 -13.5 L 13.015625 -9.53125 C 12.503906 -9.582031 11.835938 -9.609375 11.015625 -9.609375 L 7.03125 -9.640625 L 7 -3.84375 Z M 13.5625 -3.8125 "/></g></g></g><g fill="#1f355f" fill-opacity="1"><g transform="translate(87.668796, 128.63446)"><g><path d="M 11.90625 0.953125 C 11.5625 0.878906 11 0.816406 10.21875 0.765625 L 8.453125 0.625 C 8.171875 0.601562 7.910156 0.59375 7.671875 0.59375 L 7.65625 0.5625 C 7.707031 0.5 7.734375 0.414062 7.734375 0.3125 C 7.742188 0.21875 7.742188 0.113281 7.734375 0 C 7.722656 -0.101562 7.6875 -0.296875 7.625 -0.578125 C 7.570312 -0.867188 7.488281 -1.285156 7.375 -1.828125 L 6.859375 -4.015625 L 2.140625 -21.390625 C 2.804688 -21.304688 3.648438 -21.222656 4.671875 -21.140625 C 5.703125 -21.066406 6.363281 -21.0625 6.65625 -21.125 L 10.40625 -6.15625 L 15.734375 -20.390625 C 16.367188 -20.296875 17.160156 -20.210938 18.109375 -20.140625 C 19.398438 -20.046875 20.15625 -20.035156 20.375 -20.109375 L 13.25 -3.59375 C 13.25 -3.59375 13.015625 -2.976562 12.546875 -1.75 C 12.148438 -0.695312 11.941406 -0.015625 11.921875 0.296875 C 11.898438 0.617188 11.90625 0.820312 11.9375 0.90625 Z M 11.90625 0.953125 "/></g></g></g><g fill="#1f355f" fill-opacity="1"><g transform="translate(106.976957, 130.121529)"><g><path d="M 13.953125 -1.890625 C 14.609375 -1.796875 15.078125 -1.789062 15.359375 -1.875 L 15.421875 -1.859375 L 14.6875 2.125 L 2.734375 0.390625 L 5.8125 -20.9375 C 6.101562 -20.875 6.425781 -20.8125 6.78125 -20.75 L 7.875 -20.5625 C 8.625 -20.425781 9.429688 -20.296875 10.296875 -20.171875 C 12.734375 -19.816406 15.144531 -19.507812 17.53125 -19.25 C 17.289062 -18.332031 17.054688 -17.085938 16.828125 -15.515625 C 16.804688 -15.359375 16.800781 -15.238281 16.8125 -15.15625 L 16.78125 -15.109375 C 16.238281 -15.335938 15.457031 -15.523438 14.4375 -15.671875 L 9.421875 -16.390625 L 8.828125 -12.328125 L 12.609375 -11.78125 C 13.773438 -11.613281 14.484375 -11.546875 14.734375 -11.578125 L 14.203125 -7.640625 C 13.703125 -7.765625 13.046875 -7.890625 12.234375 -8.015625 L 8.28125 -8.578125 L 7.453125 -2.828125 Z M 13.953125 -1.890625 "/></g></g></g><g fill="#1f355f" fill-opacity="1"><g transform="translate(123.490329, 132.463422)"><g><path d="M 11.234375 -6.09375 C 10.921875 -6.144531 10.582031 -6.207031 10.21875 -6.28125 C 9.863281 -6.351562 9.34375 -6.492188 8.65625 -6.703125 L 6.890625 1.484375 L 2.703125 0.578125 L 7.25 -20.484375 C 8.769531 -20.347656 10.597656 -20.050781 12.734375 -19.59375 C 15.660156 -18.957031 17.71875 -17.945312 18.90625 -16.5625 C 20.101562 -15.175781 20.457031 -13.359375 19.96875 -11.109375 C 19.59375 -9.367188 18.617188 -8.019531 17.046875 -7.0625 C 16.523438 -6.757812 15.957031 -6.519531 15.34375 -6.34375 L 17.109375 1.125 C 17.429688 2.65625 17.734375 3.585938 18.015625 3.921875 L 17.9375 3.984375 C 16.945312 3.597656 15.335938 3.253906 13.109375 2.953125 Z M 12.234375 -15.8125 C 11.691406 -15.925781 11.171875 -16.007812 10.671875 -16.0625 L 9.375 -10.046875 C 9.875 -9.859375 10.46875 -9.691406 11.15625 -9.546875 C 11.851562 -9.398438 12.453125 -9.332031 12.953125 -9.34375 C 13.453125 -9.363281 13.898438 -9.460938 14.296875 -9.640625 C 15.148438 -10.046875 15.695312 -10.800781 15.9375 -11.90625 C 16.175781 -13.019531 15.960938 -13.890625 15.296875 -14.515625 C 14.648438 -15.078125 13.628906 -15.507812 12.234375 -15.8125 Z M 12.234375 -15.8125 "/></g></g></g><g fill="#000000" fill-opacity="1"><g transform="translate(58.772021, 144.100721)"><g><path d="M 4.171875 -0.453125 C 3.460938 -0.359375 2.804688 -0.429688 2.203125 -0.671875 C 1.609375 -0.910156 1.117188 -1.28125 0.734375 -1.78125 C 0.359375 -2.28125 0.128906 -2.863281 0.046875 -3.53125 C -0.046875 -4.207031 0.0234375 -4.835938 0.265625 -5.421875 C 0.515625 -6.003906 0.898438 -6.476562 1.421875 -6.84375 C 1.953125 -7.21875 2.566406 -7.453125 3.265625 -7.546875 C 3.804688 -7.617188 4.3125 -7.59375 4.78125 -7.46875 C 5.257812 -7.351562 5.675781 -7.128906 6.03125 -6.796875 L 5.484375 -6.09375 C 4.878906 -6.582031 4.191406 -6.773438 3.421875 -6.671875 C 2.898438 -6.609375 2.445312 -6.429688 2.0625 -6.140625 C 1.675781 -5.859375 1.390625 -5.5 1.203125 -5.0625 C 1.023438 -4.632812 0.96875 -4.164062 1.03125 -3.65625 C 1.09375 -3.15625 1.265625 -2.71875 1.546875 -2.34375 C 1.835938 -1.96875 2.203125 -1.691406 2.640625 -1.515625 C 3.085938 -1.335938 3.570312 -1.28125 4.09375 -1.34375 C 4.863281 -1.445312 5.484375 -1.804688 5.953125 -2.421875 L 6.65625 -1.859375 C 6.394531 -1.484375 6.046875 -1.171875 5.609375 -0.921875 C 5.179688 -0.671875 4.703125 -0.515625 4.171875 -0.453125 Z M 4.171875 -0.453125 "/></g></g></g><g fill="#000000" fill-opacity="1"><g transform="translate(69.115158, 142.918947)"><g><path d="M 5.4375 -1.96875 L 1.71875 -1.828125 L 1.015625 -0.046875 L -0.015625 0 L 2.875 -7.125 L 3.875 -7.171875 L 7.328125 -0.296875 L 6.28125 -0.25 Z M 5.046875 -2.75 L 3.40625 -6.140625 L 2.03125 -2.640625 Z M 5.046875 -2.75 "/></g></g></g><g fill="#000000" fill-opacity="1"><g transform="translate(79.610988, 142.628224)"><g><path d="M 5.734375 0.265625 L 4.3125 -1.96875 C 4.125 -1.957031 3.976562 -1.953125 3.875 -1.953125 L 2.140625 -2.03125 L 2.046875 0.09375 L 1.046875 0.046875 L 1.359375 -6.953125 L 4.09375 -6.828125 C 5 -6.785156 5.703125 -6.535156 6.203125 -6.078125 C 6.710938 -5.628906 6.945312 -5.023438 6.90625 -4.265625 C 6.882812 -3.722656 6.734375 -3.265625 6.453125 -2.890625 C 6.171875 -2.523438 5.773438 -2.265625 5.265625 -2.109375 L 6.8125 0.3125 Z M 3.890625 -2.8125 C 4.523438 -2.78125 5.015625 -2.890625 5.359375 -3.140625 C 5.703125 -3.398438 5.882812 -3.785156 5.90625 -4.296875 C 5.925781 -4.796875 5.773438 -5.1875 5.453125 -5.46875 C 5.140625 -5.757812 4.664062 -5.921875 4.03125 -5.953125 L 2.328125 -6.03125 L 2.1875 -2.890625 Z M 3.890625 -2.8125 "/></g></g></g><g fill="#000000" fill-opacity="1"><g transform="translate(90.049477, 143.246198)"><g><path d="M 6.1875 -0.09375 L 6.078125 0.78125 L 1.03125 0.140625 L 1.9375 -6.796875 L 6.84375 -6.171875 L 6.71875 -5.3125 L 2.8125 -5.8125 L 2.546875 -3.6875 L 6.03125 -3.234375 L 5.921875 -2.375 L 2.4375 -2.828125 L 2.140625 -0.609375 Z M 6.1875 -0.09375 "/></g></g></g></svg>